<?xml version="1.0" encoding="utf-8"?>
<!-- Generator: Adobe Illustrator 26.4.1, SVG Export Plug-In . SVG Version: 6.00 Build 0)  -->
<svg version="1.1" id="Warstwa_1" xmlns="http://www.w3.org/2000/svg" xmlns:xlink="http://www.w3.org/1999/xlink" x="0px" y="0px"
	 viewBox="0 0 966.85 179.1" style="enable-background:new 0 0 966.85 179.1;" xml:space="preserve">
<style type="text/css">
	.st0{fill:#FFFFFF;}
</style>
<g>
	<g>
		<path class="st0" d="M310.82,82.32H297.4V61.47h13.42V50.22c0-9.18,2.42-16.11,7.26-20.76c4.83-4.65,11.91-6.98,21.22-6.98h17.41
			v20.86h-19.05v18.14h19.05v20.86h-19.05v74.37h-26.84V82.32z"/>
		<path class="st0" d="M387.36,51.31c-5.44,0-9.4-1.24-11.88-3.72c-2.48-2.48-3.72-5.65-3.72-9.52v-3.99c0-3.87,1.24-7.04,3.72-9.52
			s6.44-3.72,11.88-3.72s9.4,1.24,11.88,3.72s3.72,5.65,3.72,9.52v3.99c0,3.87-1.24,7.05-3.72,9.52
			C396.76,50.07,392.8,51.31,387.36,51.31z M373.94,61.47h26.84v95.22h-26.84V61.47z"/>
		<path class="st0" d="M458.09,158.87c-9.19,0-16.93-1.48-23.22-4.45c-6.29-2.96-11.91-7.16-16.87-12.61l15.78-15.96
			c3.39,3.75,7.13,6.71,11.25,8.89c4.11,2.17,8.77,3.26,13.97,3.26c5.32,0,9.01-0.81,11.06-2.45c2.05-1.63,3.09-3.83,3.09-6.62
			c0-4.47-3.21-7.13-9.61-7.98l-10.34-1.27c-21.4-2.66-32.1-12.45-32.1-29.38c0-4.6,0.88-8.8,2.63-12.61
			c1.75-3.81,4.23-7.08,7.44-9.8c3.2-2.72,7.07-4.84,11.61-6.35c4.53-1.51,9.64-2.27,15.33-2.27c4.96,0,9.34,0.34,13.15,1
			c3.81,0.66,7.19,1.63,10.15,2.9c2.96,1.27,5.69,2.84,8.17,4.72c2.48,1.88,4.92,3.96,7.35,6.26l-15.42,15.78
			c-3.02-3.02-6.44-5.41-10.25-7.16c-3.81-1.75-7.71-2.63-11.7-2.63c-4.6,0-7.86,0.73-9.8,2.17c-1.94,1.45-2.9,3.39-2.9,5.81
			c0,2.54,0.69,4.51,2.09,5.89c1.39,1.39,4.02,2.39,7.89,2.99l10.7,1.45c20.92,2.78,31.38,12.33,31.38,28.66
			c0,4.6-0.97,8.83-2.9,12.7c-1.94,3.87-4.69,7.23-8.25,10.07c-3.57,2.84-7.86,5.05-12.88,6.62
			C469.85,158.08,464.26,158.87,458.09,158.87z"/>
		<path class="st0" d="M517.22,22.47h26.84v55.13h1.09c1.69-4.96,4.65-9.25,8.89-12.88s10.1-5.44,17.59-5.44
			c9.8,0,17.2,3.27,22.22,9.8c5.02,6.53,7.53,15.84,7.53,27.93v59.67h-26.84v-57.5c0-6.17-0.97-10.73-2.9-13.7
			c-1.94-2.96-5.38-4.44-10.34-4.44c-2.18,0-4.3,0.27-6.35,0.81c-2.06,0.54-3.9,1.42-5.53,2.63c-1.63,1.21-2.94,2.69-3.9,4.44
			c-0.97,1.76-1.45,3.78-1.45,6.08v61.67h-26.84V22.47z"/>
		<path class="st0" d="M615.16,61.47h25.94l9.25,38.45l6.53,29.02h0.73l7.62-29.02l10.88-38.45h24.48l11.07,38.45l7.8,29.02h0.73
			l6.53-29.02l9.25-38.45h24.85l-26.3,95.22H706.4l-11.61-40.27l-6.71-24.67h-0.54l-6.53,24.67l-11.61,40.27h-27.57L615.16,61.47z"
			/>
		<path class="st0" d="M814.68,158.87c-7.25,0-13.72-1.18-19.4-3.54c-5.69-2.36-10.49-5.68-14.42-9.98
			c-3.93-4.29-6.89-9.52-8.89-15.69c-1.99-6.17-2.99-13.06-2.99-20.68c0-7.5,0.97-14.3,2.9-20.4c1.93-6.11,4.8-11.34,8.62-15.69
			c3.81-4.35,8.49-7.7,14.05-10.07c5.56-2.36,11.91-3.54,19.05-3.54c7.86,0,14.6,1.33,20.22,3.99c5.62,2.66,10.22,6.23,13.78,10.7
			c3.56,4.48,6.16,9.64,7.8,15.51c1.63,5.87,2.45,12,2.45,18.41v7.98h-61.13v1.44c0,6.23,1.7,11.19,5.08,14.84
			c3.38,3.66,8.71,5.49,15.96,5.49c5.56,0,10.09-1.11,13.6-3.33c3.5-2.22,6.77-4.89,9.8-8.01l13.42,16.73
			c-4.23,4.97-9.77,8.85-16.6,11.64C831.16,157.47,823.39,158.87,814.68,158.87z M814.14,79.06c-5.44,0-9.71,1.78-12.79,5.35
			c-3.08,3.57-4.63,8.32-4.63,14.24v1.45h33.37v-1.63c0-5.81-1.3-10.49-3.9-14.06C823.6,80.84,819.58,79.06,814.14,79.06z"/>
		<path class="st0" d="M876.89,22.47h26.84v54.95h0.91c1.33-5.32,4.38-9.67,9.16-13.06c4.77-3.38,10.25-5.08,16.41-5.08
			c12.09,0,21.22,4.24,27.39,12.7c6.17,8.46,9.25,20.8,9.25,37s-3.08,28.57-9.25,37.09c-6.16,8.52-15.29,12.79-27.39,12.79
			c-3.14,0-6.11-0.46-8.89-1.36c-2.78-0.9-5.29-2.17-7.52-3.81c-2.24-1.63-4.14-3.56-5.72-5.81c-1.57-2.24-2.72-4.62-3.45-7.16
			h-0.91v15.96h-26.84V22.47z M921.33,137.1c5.08,0,9.28-1.78,12.61-5.35c3.33-3.56,4.99-8.37,4.99-14.42v-16.51
			c0-6.04-1.66-10.85-4.99-14.42c-3.33-3.56-7.53-5.35-12.61-5.35c-5.07,0-9.28,1.24-12.6,3.72c-3.33,2.48-4.99,5.9-4.99,10.25
			v28.11c0,4.35,1.66,7.77,4.99,10.25C912.05,135.86,916.25,137.1,921.33,137.1z"/>
	</g>
	<g>
		<g>
			<path class="st0" d="M228.99,74.06c-3.62-2.94-5.43-7.38-5.43-13.19V20.71c0-6.48-1.88-11.45-5.57-14.92
				c-3.77-3.39-8.29-5.12-13.71-5.12h-18.39V0.59h-22.83v20.72h33.23v42.57c0,3.16,0.6,6.18,1.73,9.04
				c1.13,2.79,2.56,5.35,4.44,7.61s4.07,4.14,6.56,5.65s5.2,2.56,7.91,3.09v0.75c-2.71,0.53-5.42,1.58-7.91,3.16
				c-2.49,1.51-4.67,3.39-6.56,5.58c-1.88,2.33-3.31,4.82-4.44,7.68c-1.13,2.86-1.73,5.88-1.73,9.04v42.95h-33.23v20.65h41.22
				c5.42,0,9.94-1.73,13.71-5.2c3.69-3.39,5.57-8.36,5.57-14.84v-40.39c0-5.8,1.81-10.25,5.43-13.19c3.62-2.94,8.29-4.45,13.86-4.45
				V78.5C237.28,78.5,232.61,77.07,228.99,74.06z M77.61,5.79c-3.69,3.47-5.58,8.44-5.58,14.92v40.16c0,5.8-1.81,10.25-5.42,13.19
				C62.92,77,58.32,78.5,52.74,78.5c-9.49,0-14.77-5.27-14.77-15.07V36.76c0-5.05-1.43-8.89-4.29-11.45c-2.86-2.71-6.41-4-10.55-4H0
				v20.65h10.47v27.88c0,2.49,0.15,19.59,22.45,19.59v0.83c-22.91,0-22.45,16.88-22.45,19.29v28.18H0v20.72h16.65
				c19.22,0,21.32-10.47,21.32-15.45v-25.77c0-9.12,4-16.2,14.77-16.2c5.58,0,10.17,1.43,13.87,4.45c3.62,2.94,5.42,7.38,5.42,13.19
				v40.39c0,6.4,1.88,11.45,5.58,14.84c3.69,3.47,8.29,5.2,13.71,5.2h41.22v-20.65H99.31v-42.8c0-3.16-0.6-6.18-1.73-9.04
				c-1.13-2.79-2.64-5.35-4.44-7.61c-1.88-2.26-4.07-4.14-6.63-5.65c-2.48-1.51-5.12-2.56-7.91-3.09v-0.83
				c2.79-0.45,5.43-1.51,7.91-3.09c2.56-1.51,4.75-3.39,6.63-5.65c1.81-2.26,3.31-4.75,4.44-7.61c1.13-2.86,1.73-5.88,1.73-9.04
				V21.31h33.23V0.59H91.32C85.9,0.59,81.3,2.32,77.61,5.79z"/>
		</g>
		<circle class="st0" cx="173.82" cy="79.1" r="10.77"/>
	</g>
</g>
</svg>
